<svg xmlns="http://www.w3.org/2000/svg" width="113.389" height="107.159" viewBox="0 0 113.389 107.159">
  <g id="Group_22" data-name="Group 22" transform="translate(0 0.17)">
    <ellipse id="Ellipse_768" data-name="Ellipse 768" cx="34.5" cy="35" rx="34.5" ry="35" transform="translate(44.389 -0.17)" fill="#fff" opacity="0.2"/>
    <path id="_047-denture" data-name="047-denture" d="M2.227,78.131,0,77.653v-20.9H0c0-.047,0-.093,0-.14V49.268c0-.054,0-.106,0-.158l.048-2.744H96.239l.048,2.744c0,.052,0,.1,0,.158v7.341c0,.047,0,.093,0,.14h0V77.655l-2.227.477a219.383,219.383,0,0,1-45.919,4.83A219.392,219.392,0,0,1,2.227,78.131Zm3.423-5a215.136,215.136,0,0,0,84.991,0v-7.4a10.437,10.437,0,0,1-12.283-2.1,10.435,10.435,0,0,1-15.107,0,10.434,10.434,0,0,1-15.106,0,10.435,10.435,0,0,1-15.107,0,10.435,10.435,0,0,1-15.107,0,10.439,10.439,0,0,1-12.282,2.1ZM81.184,56.609a4.729,4.729,0,0,0,9.457,0V51.952H81.184Zm-15.107,0a4.729,4.729,0,0,0,9.457,0V51.952H66.077Zm-15.107,0a4.729,4.729,0,0,0,9.457,0V51.952H50.97Zm-15.107,0a4.729,4.729,0,0,0,9.457,0V51.952H35.864Zm-15.107,0a4.729,4.729,0,0,0,9.457,0V51.952H20.757Zm-15.107,0a4.729,4.729,0,0,0,9.457,0V51.952H5.65ZM93.464,36.595H.052L0,33.852c0-.053,0-.1,0-.159V26.352c0-.047,0-.093,0-.14H0V5.308l2.227-.479a220.748,220.748,0,0,1,91.837,0l2.227.479v20.9h0c0,.047,0,.093,0,.14V33.7q0,.078,0,.155l-.048,2.744ZM81.184,26.352v4.657h9.457V26.352a4.729,4.729,0,0,0-9.457,0Zm-15.107,0v4.657h9.457V26.352a4.729,4.729,0,0,0-9.457,0Zm-15.107,0v4.657h9.457V26.352a4.729,4.729,0,0,0-9.457,0Zm-15.107,0v4.657H45.32V26.352a4.729,4.729,0,0,0-9.457,0Zm-15.107,0v4.657h9.456V26.352a4.729,4.729,0,0,0-9.457,0Zm-15.107,0v4.657h9.457V26.352a4.729,4.729,0,0,0-9.457,0Zm72.709-7.028a10.439,10.439,0,0,1,12.282-2.1v-7.4a215.113,215.113,0,0,0-84.991,0v7.4a10.437,10.437,0,0,1,12.283,2.1,10.435,10.435,0,0,1,15.107,0,10.434,10.434,0,0,1,15.106,0,10.435,10.435,0,0,1,15.107,0,10.435,10.435,0,0,1,15.107,0Z" transform="translate(0 24.028)" fill="#0e498f"/>
  </g>
</svg>
