<svg xmlns="http://www.w3.org/2000/svg" width="20.744" height="20.744" viewBox="0 0 20.744 20.744">
  <g id="Group_110" data-name="Group 110" transform="translate(-291.386 -10093.138)">
    <path id="Combined_Shape" data-name="Combined Shape" d="M14.44,8.7a7.245,7.245,0,0,0-2.4.459,5.05,5.05,0,0,0-2.888,2.887,7.211,7.211,0,0,0-.459,2.4c-.047,1.053-.059,1.39-.059,4.071s.012,3.017.06,4.07a7.255,7.255,0,0,0,.459,2.4,5.052,5.052,0,0,0,2.887,2.888,7.251,7.251,0,0,0,2.4.459c1.053.048,1.389.06,4.07.06s3.017-.012,4.07-.06a7.255,7.255,0,0,0,2.4-.459,5.058,5.058,0,0,0,2.887-2.888,7.317,7.317,0,0,0,.459-2.4c.047-1.053.06-1.389.06-4.07s-.012-3.018-.06-4.071a7.314,7.314,0,0,0-.459-2.4,5.051,5.051,0,0,0-2.888-2.887,7.267,7.267,0,0,0-2.4-.459c-1.053-.048-1.388-.06-4.07-.06h0C15.83,8.638,15.493,8.65,14.44,8.7Z" transform="translate(283.248 10085)" fill="none" stroke="#411f16" stroke-width="1"/>
    <path id="Combined_Shape-2" data-name="Combined Shape" d="M8.093,16.184c-2.631,0-2.944-.01-3.989-.058a5.451,5.451,0,0,1-1.834-.34,3.03,3.03,0,0,1-1.135-.738A3.06,3.06,0,0,1,.4,13.913,5.452,5.452,0,0,1,.057,12.08C.01,11.053,0,10.744,0,8.091S.01,5.13.057,4.1A5.452,5.452,0,0,1,.4,2.27a3.062,3.062,0,0,1,.739-1.135A3.046,3.046,0,0,1,2.271.4,5.471,5.471,0,0,1,4.1.055C5.027.014,5.374,0,7.207,0l.886,0c2.653,0,2.962.01,3.989.057A5.51,5.51,0,0,1,13.915.4a3.049,3.049,0,0,1,1.134.739,3.046,3.046,0,0,1,.739,1.135,5.45,5.45,0,0,1,.339,1.832c.048,1.045.058,1.358.058,3.988s-.01,2.943-.058,3.988a5.449,5.449,0,0,1-.339,1.832,3.283,3.283,0,0,1-1.873,1.873,5.452,5.452,0,0,1-1.834.339C11.037,16.174,10.724,16.184,8.093,16.184Zm0-13.16a5.069,5.069,0,1,0,5.068,5.07A5.075,5.075,0,0,0,8.093,3.025Zm5.269-1.384a1.184,1.184,0,1,0,1.185,1.185A1.186,1.186,0,0,0,13.363,1.641Z" transform="translate(293.666 10095.414)" fill="#411f16"/>
    <path id="Shape" d="M6.581,3.291A3.291,3.291,0,1,1,3.291,0h0A3.291,3.291,0,0,1,6.581,3.291Z" transform="translate(298.468 10100.219)" fill="#411f16"/>
  </g>
</svg>
